<svg width="424" height="40" viewBox="0 0 424 40" fill="none" xmlns="http://www.w3.org/2000/svg">
<path d="M245 20C245 8.95431 253.954 0 265 0H404C415.046 0 424 8.95431 424 20C424 31.0457 415.046 40 404 40H265C253.954 40 245 31.0457 245 20Z" fill="#1E1928"/>
<path d="M280.639 15.9119H283.841V25H285.074V15.9119H288.275V14.8182H280.639V15.9119ZM292.113 25.1591C293.665 25.1591 294.798 24.3835 295.156 23.2301L294.023 22.9119C293.724 23.7074 293.033 24.1051 292.113 24.1051C290.736 24.1051 289.787 23.2152 289.732 21.5795H295.275V21.0824C295.275 18.2386 293.585 17.2642 291.994 17.2642C289.926 17.2642 288.554 18.8949 288.554 21.2415C288.554 23.5881 289.906 25.1591 292.113 25.1591ZM289.732 20.5653C289.812 19.3771 290.652 18.3182 291.994 18.3182C293.267 18.3182 294.082 19.2727 294.082 20.5653H289.732ZM297.73 17.3636H296.378L298.804 21.1818L296.378 25H297.73L299.56 22.0369L301.389 25H302.741L300.276 21.1818L302.741 17.3636H301.389L299.56 20.4858L297.73 17.3636ZM307.737 17.3636H306.106V15.5341H304.933V17.3636H303.779V18.358H304.933V23.1307C304.933 24.4631 306.007 25.0994 307.001 25.0994C307.438 25.0994 307.717 25.0199 307.876 24.9602L307.637 23.9062C307.538 23.9261 307.379 23.9659 307.12 23.9659C306.603 23.9659 306.106 23.8068 306.106 22.8125V18.358H307.737V17.3636ZM313.598 14.8182V25H314.752V17.2642H314.851L318.033 25H319.146L322.328 17.2642H322.428V25H323.581V14.8182H322.11L318.649 23.2699H318.53L315.07 14.8182H313.598ZM329.096 25.1591C330.647 25.1591 331.781 24.3835 332.138 23.2301L331.005 22.9119C330.707 23.7074 330.016 24.1051 329.096 24.1051C327.719 24.1051 326.769 23.2152 326.714 21.5795H332.258V21.0824C332.258 18.2386 330.567 17.2642 328.977 17.2642C326.908 17.2642 325.536 18.8949 325.536 21.2415C325.536 23.5881 326.888 25.1591 329.096 25.1591ZM326.714 20.5653C326.794 19.3771 327.634 18.3182 328.977 18.3182C330.249 18.3182 331.065 19.2727 331.065 20.5653H326.714ZM341.301 17.3636H339.67V15.5341H338.497V17.3636H337.344V18.358H338.497V23.1307C338.497 24.4631 339.571 25.0994 340.565 25.0994C341.003 25.0994 341.281 25.0199 341.44 24.9602L341.202 23.9062C341.102 23.9261 340.943 23.9659 340.685 23.9659C340.168 23.9659 339.67 23.8068 339.67 22.8125V18.358H341.301V17.3636ZM344.403 20.4062C344.403 19.0739 345.254 18.3182 346.412 18.3182C347.516 18.3182 348.182 19.0142 348.182 20.2273V25H349.355V20.1477C349.355 18.1839 348.311 17.2642 346.75 17.2642C345.547 17.2642 344.861 17.7663 344.503 18.5568H344.403V14.8182H343.23V25H344.403V20.4062ZM354.703 25.1591C356.254 25.1591 357.388 24.3835 357.746 23.2301L356.612 22.9119C356.314 23.7074 355.623 24.1051 354.703 24.1051C353.326 24.1051 352.377 23.2152 352.322 21.5795H357.865V21.0824C357.865 18.2386 356.175 17.2642 354.584 17.2642C352.516 17.2642 351.144 18.8949 351.144 21.2415C351.144 23.5881 352.496 25.1591 354.703 25.1591ZM352.322 20.5653C352.401 19.3771 353.242 18.3182 354.584 18.3182C355.857 18.3182 356.672 19.2727 356.672 20.5653H352.322ZM364.164 25L365.188 22.1165H369.305L370.329 25H371.622L367.883 14.8182H366.61L362.872 25H364.164ZM365.576 21.0227L367.207 16.429H367.286L368.917 21.0227H365.576ZM373.048 27.8636H374.222V23.8267H374.321C374.58 24.2443 375.077 25.1591 376.548 25.1591C378.458 25.1591 379.79 23.6278 379.79 21.2017C379.79 18.7955 378.458 17.2642 376.529 17.2642C375.037 17.2642 374.58 18.179 374.321 18.5767H374.182V17.3636H373.048V27.8636ZM374.202 21.1818C374.202 19.4716 374.958 18.3182 376.389 18.3182C377.881 18.3182 378.617 19.571 378.617 21.1818C378.617 22.8125 377.861 24.1051 376.389 24.1051C374.977 24.1051 374.202 22.9119 374.202 21.1818ZM381.58 27.8636H382.753V23.8267H382.852C383.111 24.2443 383.608 25.1591 385.08 25.1591C386.989 25.1591 388.321 23.6278 388.321 21.2017C388.321 18.7955 386.989 17.2642 385.06 17.2642C383.568 17.2642 383.111 18.179 382.852 18.5767H382.713V17.3636H381.58V27.8636ZM382.733 21.1818C382.733 19.4716 383.489 18.3182 384.921 18.3182C386.412 18.3182 387.148 19.571 387.148 21.1818C387.148 22.8125 386.392 24.1051 384.921 24.1051C383.509 24.1051 382.733 22.9119 382.733 21.1818Z" fill="#F4EFE9"/>
<path d="M26.8245 19.9091C26.8245 22.4148 27.5006 24.5028 28.7137 26.2727H29.7478C28.7932 24.9602 28.0376 22.2756 28.0376 19.9091C28.0376 17.5426 28.7932 14.858 29.7478 13.5455H28.7137C27.5006 15.3153 26.8245 17.4034 26.8245 19.9091ZM31.4593 25H37.8825V23.9062H33.1496V23.8267L35.4365 21.3807C37.1865 19.5064 37.7036 18.6314 37.7036 17.5028C37.7036 15.9318 36.4308 14.679 34.6411 14.679C32.8563 14.679 31.499 15.892 31.499 17.6818H32.6723C32.6723 16.5234 33.423 15.7528 34.6013 15.7528C35.705 15.7528 36.5502 16.429 36.5502 17.5028C36.5502 18.4425 35.9983 19.1385 34.82 20.4261L31.4593 24.1051V25ZM39.9358 25H46.3591V23.9062H41.6262V23.8267L43.9131 21.3807C45.6631 19.5064 46.1801 18.6314 46.1801 17.5028C46.1801 15.9318 44.9074 14.679 43.1176 14.679C41.3328 14.679 39.9756 15.892 39.9756 17.6818H41.1489C41.1489 16.5234 41.8996 15.7528 43.0779 15.7528C44.1816 15.7528 45.0267 16.429 45.0267 17.5028C45.0267 18.4425 44.4749 19.1385 43.2966 20.4261L39.9358 24.1051V25ZM48.4124 25H54.8357V23.9062H50.1027V23.8267L52.3896 21.3807C54.1396 19.5064 54.6567 18.6314 54.6567 17.5028C54.6567 15.9318 53.384 14.679 51.5942 14.679C49.8094 14.679 48.4521 15.892 48.4521 17.6818H49.6254C49.6254 16.5234 50.3762 15.7528 51.5544 15.7528C52.6581 15.7528 53.5033 16.429 53.5033 17.5028C53.5033 18.4425 52.9514 19.1385 51.7732 20.4261L48.4124 24.1051V25ZM59.4145 19.9091C59.4145 17.4034 58.7384 15.3153 57.5253 13.5455H56.4912C57.4458 14.858 58.2014 17.5426 58.2014 19.9091C58.2014 22.2756 57.4458 24.9602 56.4912 26.2727H57.5253C58.7384 24.5028 59.4145 22.4148 59.4145 19.9091ZM69.4782 14.8182H68.2453L65.6998 16.5085V17.7614L68.1856 16.1108H68.2453V25H69.4782V14.8182ZM72.4065 25H78.8298V23.9062H74.0969V23.8267L76.3838 21.3807C78.1338 19.5064 78.6508 18.6314 78.6508 17.5028C78.6508 15.9318 77.3781 14.679 75.5883 14.679C73.8035 14.679 72.4463 15.892 72.4463 17.6818H73.6196C73.6196 16.5234 74.3703 15.7528 75.5486 15.7528C76.6523 15.7528 77.4974 16.429 77.4974 17.5028C77.4974 18.4425 76.9456 19.1385 75.7673 20.4261L72.4065 24.1051V25ZM84.3234 25.1392C86.2971 25.1392 87.7638 23.9013 87.7638 22.2358C87.7638 20.9432 86.9981 20.0036 85.7155 19.7898V19.7102C86.7446 19.397 87.3859 18.5518 87.3859 17.4034C87.3859 15.9616 86.2474 14.679 84.3632 14.679C82.6032 14.679 81.1416 15.7628 81.0819 17.3636H82.2751C82.3199 16.3494 83.2844 15.7528 84.3433 15.7528C85.4669 15.7528 86.1927 16.4339 86.1927 17.4631C86.1927 18.5369 85.3525 19.233 84.1444 19.233H83.3291V20.3267H84.1444C85.6906 20.3267 86.5507 21.1122 86.5507 22.2358C86.5507 23.3146 85.6111 24.0455 84.3035 24.0455C83.1253 24.0455 82.1906 23.4389 82.116 22.4545H80.8632C80.9378 24.0554 82.3497 25.1392 84.3234 25.1392ZM94.192 19.3622H89.7375V20.456H94.192V19.3622ZM95.998 22.9119H100.791V25H101.964V22.9119H103.356V21.8182H101.964V14.8182H100.472L95.998 21.8977V22.9119ZM100.791 21.8182H97.3303V21.7386L100.711 16.3892H100.791V21.8182ZM108.401 25.1392C110.34 25.1392 111.762 23.7074 111.762 21.7585C111.762 19.7848 110.389 18.3381 108.52 18.3381C107.834 18.3381 107.168 18.5817 106.75 18.9148H106.691L107.049 15.9119H111.304V14.8182H106.014L105.398 19.8295L106.551 19.9688C106.974 19.6655 107.695 19.4467 108.321 19.4517C109.619 19.4616 110.568 20.446 110.568 21.7784C110.568 23.0859 109.654 24.0455 108.401 24.0455C107.357 24.0455 106.527 23.3743 106.432 22.4545H105.239C105.313 24.0057 106.651 25.1392 108.401 25.1392ZM117.316 14.8182H116.083L113.538 16.5085V17.7614L116.024 16.1108H116.083V25H117.316V14.8182ZM120.244 25H126.668V23.9062H121.935V23.8267L124.222 21.3807C125.972 19.5064 126.489 18.6314 126.489 17.5028C126.489 15.9318 125.216 14.679 123.426 14.679C121.641 14.679 120.284 15.892 120.284 17.6818H121.457C121.457 16.5234 122.208 15.7528 123.386 15.7528C124.49 15.7528 125.335 16.429 125.335 17.5028C125.335 18.4425 124.783 19.1385 123.605 20.4261L120.244 24.1051V25Z" fill="#1E1928" fill-opacity="0.23"/>
</svg>
